<?xml version="1.0" encoding="UTF-8"?>
<svg width="217px" height="44px" viewBox="0 0 217 44" version="1.1" xmlns="http://www.w3.org/2000/svg" xmlns:xlink="http://www.w3.org/1999/xlink">
    <title>logo-light</title>
    <defs>
        <path d="M38.05,64.3 C38.93,64.3 39.62,64.04 40.12,63.52 C40.62,63 40.87,62.28 40.87,61.36 L40.87,61.36 L40.87,24.52 C40.87,23.6 40.59,22.85 40.03,22.27 C39.47,21.69 38.75,21.4 37.87,21.4 C36.67,21.4 35.69,22.12 34.93,23.56 L34.93,23.56 L20.71,50.98 L6.37,23.56 C5.61,22.12 4.61,21.4 3.37,21.4 C2.49,21.4 1.77,21.69 1.21,22.27 C0.65,22.85 0.37,23.6 0.37,24.52 L0.37,24.52 L0.37,61.36 C0.37,62.24 0.62,62.95 1.12,63.49 C1.62,64.03 2.29,64.3 3.13,64.3 C4.01,64.3 4.69,64.04 5.17,63.52 C5.65,63 5.89,62.28 5.89,61.36 L5.89,61.36 L5.89,33.7 L17.71,55.84 C18.47,57.24 19.45,57.94 20.65,57.94 C21.85,57.94 22.83,57.24 23.59,55.84 L23.59,55.84 L35.35,33.46 L35.35,61.36 C35.35,62.28 35.59,63 36.07,63.52 C36.55,64.04 37.21,64.3 38.05,64.3 Z M63.37,64.42 C64.89,64.42 66.48,64.2 68.14,63.76 C69.8,63.32 71.33,62.7 72.73,61.9 C74.17,61.1 74.89,60.12 74.89,58.96 C74.89,58.28 74.71,57.72 74.35,57.28 C73.99,56.84 73.53,56.62 72.97,56.62 C72.61,56.62 72.16,56.75 71.62,57.01 C71.08,57.27 70.75,57.44 70.63,57.52 C69.43,58.16 68.29,58.68 67.21,59.08 C66.13,59.48 64.85,59.68 63.37,59.68 C57.81,59.68 54.83,56.58 54.43,50.38 L54.43,50.38 L72.97,50.38 C74.41,50.38 75.13,49.58 75.13,47.98 C75.13,43.7 73.99,40.3 71.71,37.78 C69.43,35.26 66.33,34 62.41,34 C59.69,34 57.26,34.64 55.12,35.92 C52.98,37.2 51.32,39 50.14,41.32 C48.96,43.64 48.37,46.3 48.37,49.3 C48.37,53.98 49.71,57.67 52.39,60.37 C55.07,63.07 58.73,64.42 63.37,64.42 Z M69.91,46.9 L54.43,46.9 C54.71,44.22 55.55,42.14 56.95,40.66 C58.35,39.18 60.21,38.44 62.53,38.44 C64.81,38.44 66.58,39.17 67.84,40.63 C69.1,42.09 69.79,44.18 69.91,46.9 L69.91,46.9 Z M122.17,64.3 C123.09,64.3 123.83,64.05 124.39,63.55 C124.95,63.05 125.23,62.34 125.23,61.42 L125.23,61.42 L125.23,45.82 C125.23,37.94 121.95,34 115.39,34 C113.19,34 111.23,34.51 109.51,35.53 C107.79,36.55 106.49,37.92 105.61,39.64 C104.89,37.72 103.8,36.3 102.34,35.38 C100.88,34.46 99.03,34 96.79,34 C94.75,34 92.95,34.44 91.39,35.32 C89.83,36.2 88.61,37.48 87.73,39.16 L87.73,39.16 L87.73,36.94 C87.73,36.06 87.46,35.37 86.92,34.87 C86.38,34.37 85.69,34.12 84.85,34.12 C84.01,34.12 83.29,34.38 82.69,34.9 C82.09,35.42 81.79,36.12 81.79,37 L81.79,37 L81.79,61.42 C81.79,62.34 82.08,63.05 82.66,63.55 C83.24,64.05 83.97,64.3 84.85,64.3 C85.73,64.3 86.45,64.05 87.01,63.55 C87.57,63.05 87.85,62.34 87.85,61.42 L87.85,61.42 L87.85,47.32 C87.85,44.72 88.5,42.67 89.8,41.17 C91.1,39.67 92.85,38.92 95.05,38.92 C96.93,38.92 98.31,39.47 99.19,40.57 C100.07,41.67 100.51,43.44 100.51,45.88 L100.51,45.88 L100.51,61.42 C100.51,62.34 100.79,63.05 101.35,63.55 C101.91,64.05 102.63,64.3 103.51,64.3 C104.43,64.3 105.17,64.05 105.73,63.55 C106.29,63.05 106.57,62.34 106.57,61.42 L106.57,61.42 L106.57,47.32 C106.57,44.72 107.21,42.67 108.49,41.17 C109.77,39.67 111.51,38.92 113.71,38.92 C115.59,38.92 116.97,39.47 117.85,40.57 C118.73,41.67 119.17,43.44 119.17,45.88 L119.17,45.88 L119.17,61.42 C119.17,62.34 119.45,63.05 120.01,63.55 C120.57,64.05 121.29,64.3 122.17,64.3 Z M181.51,64.42 C183.03,64.42 184.62,64.2 186.28,63.76 C187.94,63.32 189.47,62.7 190.87,61.9 C192.31,61.1 193.03,60.12 193.03,58.96 C193.03,58.28 192.85,57.72 192.49,57.28 C192.13,56.84 191.67,56.62 191.11,56.62 C190.75,56.62 190.3,56.75 189.76,57.01 C189.22,57.27 188.89,57.44 188.77,57.52 C187.57,58.16 186.43,58.68 185.35,59.08 C184.27,59.48 182.99,59.68 181.51,59.68 C175.95,59.68 172.97,56.58 172.57,50.38 L172.57,50.38 L191.11,50.38 C192.55,50.38 193.27,49.58 193.27,47.98 C193.27,43.7 192.13,40.3 189.85,37.78 C187.57,35.26 184.47,34 180.55,34 C177.83,34 175.4,34.64 173.26,35.92 C171.12,37.2 169.46,39 168.28,41.32 C167.1,43.64 166.51,46.3 166.51,49.3 C166.51,53.98 167.85,57.67 170.53,60.37 C173.21,63.07 176.87,64.42 181.51,64.42 Z M188.05,46.9 L172.57,46.9 C172.85,44.22 173.69,42.14 175.09,40.66 C176.49,39.18 178.35,38.44 180.67,38.44 C182.95,38.44 184.72,39.17 185.98,40.63 C187.24,42.09 187.93,44.18 188.05,46.9 L188.05,46.9 Z M212.77,64.3 C213.97,64.38 214.88,64.21 215.5,63.79 C216.12,63.37 216.43,62.76 216.43,61.96 C216.43,61.28 216.24,60.75 215.86,60.37 C215.48,59.99 214.85,59.76 213.97,59.68 L213.97,59.68 L212.29,59.56 C210.69,59.44 209.5,58.94 208.72,58.06 C207.94,57.18 207.55,55.8 207.55,53.92 L207.55,53.92 L207.55,39.4 L213.49,39.4 C214.33,39.4 214.98,39.2 215.44,38.8 C215.9,38.4 216.13,37.82 216.13,37.06 C216.13,36.34 215.9,35.77 215.44,35.35 C214.98,34.93 214.33,34.72 213.49,34.72 L213.49,34.72 L207.55,34.72 L207.55,28.54 C207.55,27.62 207.27,26.9 206.71,26.38 C206.15,25.86 205.41,25.6 204.49,25.6 C203.57,25.6 202.84,25.86 202.3,26.38 C201.76,26.9 201.49,27.62 201.49,28.54 L201.49,28.54 L201.49,34.72 L197.89,34.72 C197.05,34.72 196.4,34.93 195.94,35.35 C195.48,35.77 195.25,36.34 195.25,37.06 C195.25,38.62 196.13,39.4 197.89,39.4 L197.89,39.4 L201.49,39.4 L201.49,53.5 C201.49,56.9 202.29,59.47 203.89,61.21 C205.49,62.95 207.91,63.94 211.15,64.18 L211.15,64.18 L212.77,64.3 Z" id="path-1"></path>
    </defs>
    <g id="Memoet" stroke="none" stroke-width="1" fill="none" fill-rule="evenodd">
        <g id="logo-light" transform="translate(0.000000, -21.000000)" fill="#6366F1" fill-rule="nonzero">
            <g id="check" transform="translate(130.000000, 33.000000)">
                <path d="M16.0010864,32 C7.17796796,32 0,24.8231392 0,16.0012474 C0,7.17822895 7.17796796,0 16.0010864,0 C24.8231587,0 32,7.17822895 32,16.0012474 C32,24.8231392 24.8231587,32 16.0010864,32 Z M16.0006755,5 C9.93484802,5 5,9.93480154 5,16.0007369 C5,22.0656283 9.93484802,27 16.0006755,27 C22.065766,27 27,22.0656283 27,16.0007369 C27,9.93480154 22.065766,5 16.0006755,5 Z" id="Shape"></path>
                <path d="M12.616181,23 L12.616181,23 C12.0573015,23 11.4985486,22.7949317 11.0831095,22.4372557 L7.67802883,19.504643 C7.03580812,18.952273 6.83454815,18.1884097 7.13985788,17.4620941 C7.4760089,16.662805 8.33912161,16.1045405 9.23909187,16.1045405 C9.76662352,16.1045405 10.2641372,16.2927507 10.6776764,16.6486583 L12.4933225,18.212518 L20.3395484,10.6103126 C20.751251,10.2110807 21.2576941,10 21.8040345,10 C22.6582178,10 23.4716805,10.5228977 23.8277802,11.3010846 C24.1643112,12.0364777 24.0016186,12.8279271 23.3924557,13.4182574 L14.1087853,22.4130884 C13.7182979,22.791395 13.1881064,23 12.616181,23 Z" id="Shape"></path>
            </g>
            <g id="Memet">
                <use xlink:href="#path-1"></use>
                <use xlink:href="#path-1"></use>
            </g>
        </g>
    </g>
</svg>